# Blender 4.1.1
# www.blender.org
mtllib unit_sphere.mtl
o Sphere
v -0.018086 -0.646337 -0.773579
v -0.037826 0.898870 -0.459932
v 0.057919 0.301900 -0.959114
v 0.092938 -0.293132 -0.961119
v 0.291113 0.098970 -0.959673
v 0.138096 -0.882669 -0.463958
v 0.354196 0.575269 -0.758085
v 0.336874 -0.474460 -0.826422
v 0.604393 0.300872 -0.748774
v 0.558883 -0.149714 -0.831077
v 0.383607 -0.718498 -0.591826
v 0.330984 0.878242 -0.373508
v 0.581256 0.717473 -0.397691
v 0.686881 0.503271 -0.537872
v 0.624289 -0.487417 -0.628039
v 0.844562 0.108868 -0.547531
v 0.939559 -0.090259 -0.375172
v 0.695541 -0.633224 -0.359460
v 0.381326 -0.885775 -0.299422
v 0.478149 0.880248 -0.099869
v 0.850226 0.475433 -0.260919
v 0.918663 -0.316658 -0.269816
v 0.764772 0.653956 -0.050543
v 1.000522 0.115511 -0.064524
v 0.775746 -0.638968 -0.072222
v 0.085738 -1.000031 -0.101586
v 0.258259 0.977964 0.023384
v 0.962392 -0.292918 0.077974
v 0.478110 -0.886606 0.012477
v 0.881804 0.467887 0.181001
v 0.956240 0.098975 0.307534
v 0.894759 -0.291792 0.351487
v 0.744334 -0.638968 0.230140
v 0.591261 0.800277 0.174172
v 0.756879 0.292918 0.599509
v 0.599604 0.638968 0.497466
v 0.765762 -0.098975 0.650062
v 0.689306 -0.475433 0.561978
v 0.473320 -0.789441 0.419259
v 0.201134 -0.962922 0.217689
v 0.481275 -0.024065 0.895922
v 0.077844 0.968943 0.269289
v 0.279746 0.791803 0.564279
v 0.345413 0.479008 0.825073
v 0.275553 0.098975 0.965941
v 0.379072 -0.445507 0.826581
v 0.222175 -0.638968 0.746750
v -0.093416 0.074357 1.001902
v 0.097535 -0.197140 0.980191
v -0.043451 0.775845 0.639527
v -0.084310 0.475433 0.885355
v -0.080506 -0.638968 0.774930
v 0.030913 -0.878755 0.496968
v -0.370931 0.638968 0.685134
v -0.183979 -0.307755 0.949415
v -0.396471 -0.491477 0.786423
v -0.347612 0.291519 0.904467
v -0.252700 0.892297 0.399383
v -0.601983 0.077002 0.812629
v -0.375647 -0.790569 0.509155
v -0.604884 0.638968 0.491032
v -0.667528 -0.279475 0.712111
v -0.696720 -0.497100 0.529154
v -0.198712 -0.967162 0.201703
v -0.482801 0.879537 0.118902
v -0.752602 0.470410 0.496145
v -0.893623 0.098976 0.458703
v -0.942328 -0.197140 0.286887
v -0.850226 -0.475433 0.260919
v -0.649027 -0.712804 0.287952
v -0.884792 0.475433 0.090034
v -0.471357 -0.886606 0.081037
v -0.697381 0.727273 0.076985
v -1.005684 0.130347 0.017193
v -0.956011 -0.313439 -0.047493
v -0.760852 -0.656278 -0.043728
v -0.867751 0.115513 -0.502210
v -0.956239 -0.098976 -0.307534
v -0.432426 0.885044 -0.216032
v -0.827658 0.479008 -0.339171
v -0.817313 -0.479146 -0.349051
v -0.572374 -0.787404 -0.260633
v -0.110310 1.003553 -0.065919
v -0.600003 0.712804 -0.379669
v -0.624227 0.098976 -0.786963
v -0.566425 0.475433 -0.685657
v -0.683322 -0.268550 -0.699176
v -0.511945 -0.577377 -0.660933
v -0.419037 -0.774216 -0.487296
v -0.282447 0.783962 -0.572441
v -0.260919 0.475432 -0.850226
v -0.209111 0.071271 -0.990741
v -0.288332 -0.300258 -0.919952
v -0.165241 -0.787159 -0.608044
v -0.208479 -0.959941 -0.243410
v 0.077222 0.628184 -0.784051
vn 0.0490 -0.7819 -0.6215
vn 0.0580 0.0694 -0.9959
vn 0.1102 -0.4929 -0.8631
vn 0.2100 -0.6564 -0.7246
vn 0.1693 0.4582 -0.8726
vn 0.3090 -0.1527 -0.9387
vn 0.3078 -0.8269 -0.4706
vn 0.3803 0.3173 -0.8687
vn 0.6717 0.0669 -0.7378
vn 0.5177 -0.3650 -0.7738
vn 0.4141 0.7270 -0.5477
vn 0.7673 -0.1694 -0.6186
vn 0.5568 -0.6591 -0.5055
vn 0.7443 0.3120 -0.5905
vn 0.7185 0.5926 -0.3642
vn 0.8016 -0.3115 -0.5103
vn 0.8242 -0.5128 -0.2404
vn 0.6282 0.7534 -0.1943
vn 0.9270 0.2221 -0.3024
vn -0.0013 -0.9577 0.2878
vn 0.8599 -0.5026 0.0893
vn 0.7430 0.6525 0.1488
vn 0.9633 0.2373 0.1252
vn 0.9631 -0.1247 0.2387
vn 0.4054 -0.8880 0.2169
vn 0.5771 -0.7928 0.1962
vn 0.8486 0.0866 0.5219
vn 0.8917 -0.0904 0.4436
vn 0.4351 0.6287 0.6445
vn 0.5777 0.4612 0.6734
vn 0.5521 0.2606 0.7920
vn 0.4512 -0.6277 0.6344
vn 0.2573 -0.7880 0.5594
vn 0.4385 0.2404 0.8660
vn 0.2604 -0.1104 0.9592
vn 0.0820 -0.4553 0.8865
vn -0.1261 0.2795 0.9518
vn -0.0605 -0.1218 0.9907
vn -0.1817 -0.8942 0.4091
vn -0.3487 0.0123 0.9371
vn -0.4422 -0.1672 0.8812
vn -0.4378 -0.2578 0.8613
vn -0.5634 -0.4861 0.6681
vn -0.4157 0.7591 0.5010
vn -0.7461 0.2199 0.6285
vn -0.5759 -0.6627 0.4788
vn -0.5907 0.7520 0.2924
vn -0.4729 -0.8313 0.2922
vn -0.8429 -0.1595 0.5139
vn 0.3154 0.9324 -0.1765
vn -0.7688 0.5854 0.2575
vn -0.8686 -0.4940 0.0384
vn -0.7626 -0.6293 0.1499
vn -0.9889 -0.1228 0.0832
vn -0.9342 -0.3233 0.1507
vn -0.9918 -0.0992 -0.0810
vn -0.4191 -0.8976 -0.1367
vn -0.8615 -0.4918 -0.1260
vn -0.8006 0.5905 -0.1017
vn -0.6085 -0.7920 -0.0500
vn -0.6284 0.7616 -0.1581
vn -0.7253 -0.6452 -0.2402
vn -0.9415 0.2188 -0.2563
vn 0.2743 -0.9616 0.0126
vn -0.9173 -0.3076 -0.2529
vn -0.5955 -0.6709 -0.4419
vn -0.6608 0.5562 -0.5040
vn -0.2795 -0.9601 -0.0094
vn -0.3328 -0.7073 -0.6237
vn -0.3777 0.6049 -0.7011
vn -0.2581 -0.5403 -0.8009
vn -0.0422 0.4743 -0.8794
vn -0.1028 -0.1650 -0.9809
vn -0.0557 0.7565 -0.6516
vn 0.0635 -0.0284 -0.9976
vn 0.1151 0.9667 -0.2287
vn 0.1598 -0.7442 -0.6486
vn 0.2932 0.3394 -0.8938
vn 0.5955 -0.7819 -0.1845
vn 0.0060 -0.9935 0.1133
vn 0.3283 -0.2375 -0.9142
vn 0.5080 0.1049 -0.8550
vn 0.4476 -0.5737 -0.6859
vn 0.5181 0.6324 -0.5759
vn 0.5538 0.4819 -0.6791
vn 0.0177 -0.9519 -0.3058
vn 0.4413 0.8939 0.0787
vn 0.7629 -0.2181 -0.6086
vn 0.5177 -0.7444 -0.4218
vn -0.2420 0.9578 0.1550
vn 0.8244 0.3407 -0.4520
vn 0.7873 -0.4297 -0.4421
vn 0.5006 0.8207 -0.2753
vn 0.7156 0.6485 -0.2596
vn 0.9848 -0.1344 -0.1097
vn 0.9349 0.1825 -0.3044
vn 0.8743 0.4824 -0.0542
vn 0.9324 0.3563 -0.0605
vn 0.5958 -0.2818 0.7521
vn 0.8916 -0.4454 -0.0817
vn 0.6224 0.7821 -0.0287
vn 0.6494 -0.7574 0.0675
vn -0.1521 0.9708 0.1856
vn 0.9919 -0.0522 0.1157
vn 0.8661 -0.4508 0.2160
vn 0.7985 -0.2861 0.5297
vn 0.8001 -0.4748 0.3667
vn 0.6468 -0.6361 0.4207
vn 0.7159 0.6319 0.2968
vn 0.7685 0.4755 0.4282
vn 0.8685 0.3084 0.3882
vn 0.4621 0.7982 0.3864
vn 0.4771 -0.6140 0.6288
vn 0.6663 0.1102 0.7374
vn 0.0855 -0.4416 0.8931
vn 0.2496 -0.8746 0.4157
vn -0.2549 0.8968 -0.3616
vn 0.3052 -0.2262 0.9250
vn 0.0977 -0.0109 0.9952
vn 0.1208 0.6352 0.7629
vn 0.1035 0.3019 0.9477
vn 0.0620 -0.7433 0.6661
vn 0.3470 0.8910 0.2929
vn 0.1773 -0.9435 -0.2800
vn -0.3486 -0.0460 0.9361
vn -0.2101 0.9346 -0.2870
vn -0.2055 -0.5056 0.8379
vn -0.2418 0.7736 0.5858
vn -0.2840 -0.6624 0.6932
vn -0.1618 0.6380 0.7528
vn -0.1504 -0.7776 0.6105
vn -0.2880 0.4973 0.8184
vn -0.5471 0.4413 0.7113
vn 0.1924 0.7808 -0.5945
vn -0.5127 -0.6026 0.6115
vn -0.8306 -0.3024 0.4676
vn -0.5744 0.3682 0.7311
vn -0.7723 -0.0368 0.6341
vn -0.3849 -0.8785 0.2831
vn -0.4817 0.7995 0.3588
vn -0.9156 0.2921 0.2764
vn -0.7289 -0.5756 0.3706
vn -0.7142 0.6348 0.2949
vn 0.3021 -0.9484 -0.0963
vn -0.7372 0.3117 -0.5994
vn -0.9689 0.0160 0.2471
vn -0.6430 -0.7609 0.0871
vn -0.9286 0.3508 -0.1207
vn -0.5678 0.8200 -0.0719
vn -0.7204 0.6712 -0.1749
vn -0.9530 0.1593 -0.2576
vn 0.0512 0.9959 0.0741
vn -0.8392 -0.1325 -0.5274
vn -0.3310 0.9430 -0.0343
vn -0.8416 -0.2556 -0.4758
vn -0.6429 -0.6341 -0.4297
vn -0.4287 0.8056 -0.4089
vn -0.2527 -0.8624 -0.4386
vn 0.0218 0.8835 0.4679
vn -0.7605 -0.0326 -0.6485
vn -0.3941 -0.8628 -0.3168
vn -0.7031 -0.4576 -0.5443
vn -0.4921 0.6609 -0.5667
vn -0.4300 0.2702 -0.8615
vn -0.4676 -0.1009 -0.8782
vn -0.4766 -0.3636 -0.8004
vn -0.0763 -0.8975 -0.4343
vn -0.2561 -0.6119 -0.7483
vn -0.1287 -0.9916 -0.0133
vn -0.1538 0.3068 -0.9393
vn -0.0879 -0.4455 -0.8910
vn -0.1514 0.6555 -0.7398
vt 0.751005 0.281942
vt 0.704169 0.160369
vt 0.790460 0.215365
vt 0.741874 0.599249
vt 0.704616 0.531266
vt 0.785227 0.524248
vt 0.734616 0.406655
vt 0.689079 0.342315
vt 0.658359 0.250000
vt 0.734375 0.717281
vt 0.675922 0.690709
vt 0.655388 0.455750
vt 0.606398 0.157787
vt 0.641330 0.592355
vt 0.591272 0.533801
vt 0.626504 0.341903
vt 0.634813 0.834825
vt 0.595563 0.750000
vt 0.560034 0.470837
vt 0.577540 0.283466
vt 0.603325 0.667055
vt 0.546915 0.655822
vt 0.543444 0.396147
vt 0.515588 0.281661
vt 0.538374 0.839666
vt 0.510998 0.724803
vt 0.509405 0.537235
vt 0.258528 0.164268
vt 0.126365 0.089978
vt 0.364572 0.093701
vt 0.485851 0.406417
vt 0.453088 0.281661
vt 0.452912 0.790462
vt 0.464857 0.646732
vt 0.451782 0.530835
vt 0.437500 0.406180
vt 0.495870 0.157743
vt 0.383978 0.215168
vt 0.392101 0.593583
vt 0.389282 0.469165
vt 0.390588 0.718339
vt 0.322107 0.785793
vt 0.312582 0.656006
vt 0.336783 0.489027
vt 0.319711 0.360741
vt 0.296838 0.281661
vt 0.295532 0.530835
vt 0.265786 0.437500
vt 0.221054 0.404735
vt 0.237635 0.520573
vt 0.234415 0.655822
vt 0.190326 0.590815
vt 0.147807 0.215515
vt 0.147516 0.523151
vt 0.131538 0.415904
vt 0.176363 0.337227
vt 0.102021 0.334687
vt 0.162984 0.843938
vt 0.108913 0.719958
vt 0.171838 0.718339
vt 0.088915 0.640758
vt 0.076782 0.530835
vt 0.066529 0.250000
vt 0.040088 0.835757
vt 0.024026 0.750000
vt 0.262589 0.157743
vt 0.047036 0.437500
vt 0.493209 0.916361
vt 0.015664 0.655822
vt 0.046914 0.344178
vt 0.000000 0.399333
vt 0.000000 0.273040
vt 0.010664 0.538824
vt 0.993268 0.527207
vt 0.951782 0.469165
vt 0.992171 0.399333
vt 0.770677 0.157743
vt 0.930683 0.213681
vt 0.865578 0.109919
vt 0.991904 0.273040
vt 0.937240 0.344386
vt 1.000000 0.655822
vt 0.987176 0.750000
vt 0.937739 0.656003
vt 0.923414 0.839666
vt 0.910279 0.750000
vt 0.915655 0.537235
vt 0.646132 0.049163
vt 0.854863 0.312500
vt 0.859804 0.220753
vt 0.859414 0.655822
vt 0.825587 0.779190
vt 0.796945 0.653777
vt 0.797630 0.405349
vt 0.763788 0.849742
vt 0.825681 0.950817
vt 0.328125 0.000000
vt 0.771106 0.030068
vt 0.604855 0.968018
vt 0.390665 0.344178
vt 0.286214 0.910221
vt 0.234338 0.281661
vt 0.234438 0.779372
vt 0.858032 0.530836
vt 1.000000 0.835757
vt 0.203125 1.000000
vt 0.871569 0.414693
vt 0.109375 0.000000
s 0
usemtl Material.001
f 1/1/1 6/2/1 94/3/1
f 3/4/2 5/5/2 92/6/2
f 4/7/3 8/8/3 1/1/3
f 8/8/4 11/9/4 1/1/4
f 96/10/5 7/11/5 3/4/5
f 5/5/6 10/12/6 4/7/6
f 6/2/7 11/9/7 19/13/7
f 7/11/8 9/14/8 5/5/8
f 10/12/9 9/14/9 16/15/9
f 10/12/10 15/16/10 8/8/10
f 12/17/11 13/18/11 7/11/11
f 16/15/12 17/19/12 10/12/12
f 15/16/13 18/20/13 11/9/13
f 9/14/14 14/21/14 16/15/14
f 14/21/15 13/18/15 21/22/15
f 17/19/16 22/23/16 15/16/16
f 18/20/17 22/23/17 25/24/17
f 20/25/18 23/26/18 13/18/18
f 16/15/19 21/22/19 24/27/19
f 53/28/20 64/29/20 40/30/20
f 25/24/21 28/31/21 33/32/21
f 23/26/22 34/33/22 30/34/22
f 24/27/23 30/34/23 31/35/23
f 31/35/24 32/36/24 28/31/24
f 29/37/25 39/38/25 40/30/25
f 29/37/26 33/32/26 39/38/26
f 31/35/27 35/39/27 37/40/27
f 31/35/28 37/40/28 32/36/28
f 36/41/29 43/42/29 44/43/29
f 36/41/30 44/43/30 35/39/30
f 35/39/31 44/43/31 41/44/31
f 46/45/32 47/46/32 39/38/32
f 39/38/33 47/46/33 53/28/33
f 41/44/34 44/43/34 45/47/34
f 45/47/35 49/48/35 41/44/35
f 49/48/36 55/49/36 46/45/36
f 48/50/37 51/51/37 57/52/37
f 48/50/38 55/49/38 49/48/38
f 53/28/39 60/53/39 64/29/39
f 48/50/40 57/52/40 59/54/40
f 59/54/41 62/55/41 55/49/41
f 55/49/42 62/55/42 56/56/42
f 56/56/43 62/55/43 63/57/43
f 58/58/44 61/59/44 54/60/44
f 59/54/45 66/61/45 67/62/45
f 63/57/46 70/63/46 60/53/46
f 65/64/47 73/65/47 61/59/47
f 60/53/48 70/63/48 72/66/48
f 67/62/49 68/67/49 62/55/49
f 27/68/50 20/25/50 12/17/50
f 66/61/51 73/65/51 71/69/51
f 69/70/52 75/71/52 76/72/52
f 69/70/53 76/72/53 70/63/53
f 74/73/54 75/71/54 68/67/54
f 68/67/55 75/71/55 69/70/55
f 74/74/56 78/75/56 75/76/56
f 72/77/57 82/78/57 95/79/57
f 76/80/58 75/76/58 81/81/58
f 71/82/59 73/83/59 80/84/59
f 72/77/60 76/80/60 82/78/60
f 79/85/61 84/86/61 73/83/61
f 81/81/62 82/78/62 76/80/62
f 74/74/63 80/84/63 77/87/63
f 26/88/64 29/37/64 40/30/64
f 78/75/65 81/81/65 75/76/65
f 88/89/66 89/90/66 82/78/66
f 80/84/67 84/86/67 86/91/67
f 64/29/68 72/77/68 95/79/68
f 88/89/69 94/3/69 89/90/69
f 86/91/70 90/92/70 91/93/70
f 88/89/71 93/94/71 1/1/71
f 91/93/72 96/10/72 3/4/72
f 92/6/73 4/7/73 93/94/73
f 90/92/74 2/95/74 96/10/74
f 92/6/75 5/5/75 4/7/75
f 12/17/76 2/95/76 83/96/76 27/68/76
f 6/2/77 1/1/77 11/9/77
f 5/5/78 3/4/78 7/11/78
f 25/24/79 29/37/79 19/13/79 18/20/79
f 40/30/80 64/29/80 26/97/80
f 4/7/81 10/12/81 8/8/81
f 5/5/82 9/14/82 10/12/82
f 11/9/83 8/8/83 15/16/83
f 7/11/84 13/18/84 14/21/84
f 7/11/85 14/21/85 9/14/85
f 95/79/86 6/2/86 26/98/86
f 20/25/87 27/68/87 34/33/87
f 10/12/88 17/19/88 15/16/88
f 11/9/89 18/20/89 19/13/89
f 83/99/90 65/64/90 58/58/90
f 16/15/91 14/21/91 21/22/91
f 18/20/92 15/16/92 22/23/92
f 12/17/93 20/25/93 13/18/93
f 21/22/94 13/18/94 23/26/94
f 28/31/95 22/23/95 17/19/95 24/27/95
f 17/19/96 16/15/96 24/27/96
f 21/22/97 23/26/97 30/34/97
f 24/27/98 21/22/98 30/34/98
f 46/45/99 38/100/99 37/40/99 41/44/99
f 25/24/100 22/23/100 28/31/100
f 20/25/101 34/33/101 23/26/101
f 29/37/102 25/24/102 33/32/102
f 42/101/103 83/99/103 58/58/103
f 24/27/104 31/35/104 28/31/104
f 33/32/105 28/31/105 32/36/105
f 32/36/106 37/40/106 38/100/106
f 33/32/107 32/36/107 38/100/107
f 33/32/108 38/100/108 39/38/108
f 30/34/109 34/33/109 36/41/109
f 30/34/110 36/41/110 35/39/110
f 31/35/111 30/34/111 35/39/111
f 34/33/112 43/42/112 36/41/112
f 38/100/113 46/45/113 39/38/113
f 37/40/114 35/39/114 41/44/114
f 55/49/115 52/102/115 47/46/115 46/45/115
f 39/38/116 53/28/116 40/30/116
f 79/85/117 2/95/117 90/92/117
f 41/44/118 49/48/118 46/45/118
f 45/47/119 48/50/119 49/48/119
f 50/103/120 51/51/120 44/43/120 43/42/120
f 51/51/121 48/50/121 45/47/121 44/43/121
f 53/28/122 47/46/122 52/102/122
f 27/68/123 42/101/123 43/42/123 34/33/123
f 6/2/124 19/13/124 26/98/124
f 48/50/125 59/54/125 55/49/125
f 79/85/126 83/96/126 2/95/126
f 52/102/127 55/49/127 56/56/127
f 50/103/128 58/58/128 54/60/128
f 52/102/129 56/56/129 60/53/129
f 51/51/130 50/103/130 54/60/130
f 53/28/131 52/102/131 60/53/131
f 51/51/132 54/60/132 57/52/132
f 66/61/133 57/52/133 54/60/133 61/59/133
f 7/11/134 96/10/134 2/95/134 12/17/134
f 56/56/135 63/57/135 60/53/135
f 69/70/136 63/57/136 62/55/136 68/67/136
f 59/54/137 57/52/137 66/61/137
f 59/54/138 67/62/138 62/55/138
f 60/53/139 72/66/139 64/29/139
f 58/58/140 65/64/140 61/59/140
f 71/69/141 74/73/141 67/62/141 66/61/141
f 63/57/142 69/70/142 70/63/142
f 61/59/143 73/65/143 66/61/143
f 19/13/144 29/37/144 26/88/144
f 86/91/145 85/104/145 77/87/145 80/84/145
f 67/62/146 74/73/146 68/67/146
f 72/66/147 70/63/147 76/72/147
f 74/74/148 71/82/148 80/84/148
f 65/105/149 79/85/149 73/83/149
f 80/84/150 73/83/150 84/86/150
f 78/75/151 74/74/151 77/87/151
f 42/101/152 27/68/152 83/106/152
f 78/75/153 77/87/153 87/107/153
f 83/96/154 79/85/154 65/105/154
f 78/75/155 87/107/155 81/81/155
f 81/81/156 88/89/156 82/78/156
f 79/85/157 90/92/157 84/86/157
f 89/90/158 94/3/158 95/79/158
f 42/101/159 58/58/159 50/103/159 43/42/159
f 77/87/160 85/104/160 87/107/160
f 82/78/161 89/90/161 95/79/161
f 88/89/162 81/81/162 87/107/162
f 86/91/163 84/86/163 90/92/163
f 91/93/164 92/6/164 85/104/164 86/91/164
f 93/94/165 87/107/165 85/104/165 92/6/165
f 88/89/166 87/107/166 93/94/166
f 6/2/167 95/79/167 94/3/167
f 88/89/168 1/1/168 94/3/168
f 64/29/169 95/79/169 26/108/169
f 92/6/170 91/93/170 3/4/170
f 93/94/171 4/7/171 1/1/171
f 91/93/172 90/92/172 96/10/172
